<svg xmlns="http://www.w3.org/2000/svg" width="16" height="16" preserveAspectRatio="xMidYMid meet" viewBox="0 0 14 14" fill="none"><mask id="phantom_a" width="10" height="12" x="2" y="1" maskUnits="userSpaceOnUse" style="mask-type:luminance"><path fill="#fff" d="M11.125 1h-8.25v12h8.25V1Z"/></mask><g mask="url(#phantom_a)"><path fill="#E33E3F" fill-rule="evenodd" d="M7.782 1.944c.436 0 .845.058 1.224.166C8.635 1.246 7.865 1 7.008 1c-.859 0-1.63.247-2 1.116a4.246 4.246 0 0 1 1.218-.172h1.556Zm-1.656.867c-2.071 0-3.251 1.63-3.251 3.64v2.064c0 .201.168.36.375.36h7.5a.366.366 0 0 0 .375-.36V6.45c0-2.01-1.372-3.639-3.443-3.639H6.126Zm.871 3.657a1.313 1.313 0 1 0 0-2.625 1.313 1.313 0 0 0 0 2.625Zm-4.122 3.62a.37.37 0 0 1 .375-.363h7.5a.37.37 0 0 1 .375.364v2.183a.74.74 0 0 1-.75.728h-6.75a.74.74 0 0 1-.75-.728v-2.184Z" clip-rule="evenodd"/></g></svg>