<svg xmlns="http://www.w3.org/2000/svg" width="16" height="16" preserveAspectRatio="xMidYMid meet" viewBox="0 0 14 14" fill="none" class="mr-0.5"><path fill="#AB9FF2" d="M1.654 12.806c1.784 0 3.124-1.551 3.924-2.777a2.392 2.392 0 0 0-.151.803c0 .715.41 1.225 1.221 1.225 1.113 0 2.303-.976 2.919-2.028a1.55 1.55 0 0 0-.065.423c0 .499.28.813.854.813 1.805 0 3.621-3.2 3.621-5.998 0-2.18-1.103-4.1-3.87-4.1C5.243 1.167 0 7.11 0 10.95c0 1.508.81 1.855 1.654 1.855Zm6.778-7.778c0-.542.302-.922.746-.922.432 0 .735.38.735.922 0 .543-.303.933-.735.933-.444 0-.746-.39-.746-.933Zm2.313 0c0-.542.303-.922.746-.922.432 0 .735.38.735.922 0 .543-.303.933-.735.933-.443 0-.746-.39-.746-.933Z"/></svg>