<svg xmlns="http://www.w3.org/2000/svg" width="16" height="16" preserveAspectRatio="xMidYMid meet" viewBox="0 0 14 14" fill="none"><g clip-path="url(#solflare_a)"><path fill="url(#solflare_b)" d="M7.107 13.471c.147 0 .267.119.267.265 0 .146-.12.264-.267.264a.266.266 0 0 1-.268-.264c0-.146.12-.265.268-.265ZM6.817.842c.13.01.235.11.253.238l.318 2.31a.96.96 0 0 0 1.596.575l3.185-2.899a.19.19 0 0 1 .267.01c.065.07.067.177.005.25L9.663 4.528c-.511.59-.134 1.509.646 1.574l2.45.237a.22.22 0 0 1 .2.24.22.22 0 0 1-.186.195l-2.576.402a.954.954 0 0 0-.6 1.562l.906 1.068a.201.201 0 0 1-.026.286.207.207 0 0 1-.257.006l-1.116-.843a.96.96 0 0 0-1.534.681l-.246 2.924a.221.221 0 0 1-.24.2.22.22 0 0 1-.201-.188l-.39-2.824a.959.959 0 0 0-1.596-.576L1.508 12.56a.174.174 0 0 1-.244-.01.17.17 0 0 1-.004-.227L4.218 8.91a.953.953 0 0 0-.644-1.574L1.123 7.1a.22.22 0 0 1-.2-.24.22.22 0 0 1 .187-.195l2.573-.402a.955.955 0 0 0 .603-1.563l-.617-.726a.25.25 0 0 1 .032-.355.257.257 0 0 1 .319-.007l.757.572A.96.96 0 0 0 6.31 3.5l.203-2.407a.279.279 0 0 1 .302-.252ZM.296 6.59c.147 0 .267.119.267.265 0 .146-.12.264-.267.264a.266.266 0 0 1-.268-.264c0-.146.12-.265.268-.265Zm13.406-.268c.148 0 .267.118.267.264 0 .146-.12.264-.267.264a.266.266 0 0 1-.267-.264c0-.146.12-.264.267-.264ZM6.778 0c.147 0 .267.118.267.264 0 .146-.12.265-.267.265A.266.266 0 0 1 6.51.264c0-.146.12-.264.268-.264Z"/><path fill="url(#solflare_c)" d="M6.939 9.217c1.394 0 2.525-1.118 2.525-2.498 0-1.379-1.13-2.497-2.525-2.497S4.414 5.34 4.414 6.719c0 1.38 1.13 2.498 2.525 2.498Z"/></g><defs><radialGradient id="solflare_c" cx="0" cy="0" r="1" gradientTransform="rotate(85.808 -.008 6.272) scale(3.40472 3.44238)" gradientUnits="userSpaceOnUse"><stop stop-color="#FFC00B"/><stop offset="1" stop-color="#FB472B"/></radialGradient><linearGradient id="solflare_b" x1="3.356" x2="10.743" y1="3.168" y2="10.148" gradientUnits="userSpaceOnUse"><stop stop-color="#FEAB10"/><stop offset="1" stop-color="#FB3F2E"/></linearGradient><clipPath id="solflare_a"><path fill="#fff" d="M0 0h14v14H0z"/></clipPath></defs></svg>